# xmcd
#
# Track frame offsets:
#	150
#	12205
#	25055
#	37330
#	49990
#	71197
#	83265
#	101437
#	112032
#	124917
#	143000
#	156259
#	175915
#	188922
#	205697
#	222395
#	237570
#
# Disc length: 3337 seconds
#
# Revision: 0
# Processed by: cddbd v1.5.2PL0 Copyright (c) Steve Scherf et al.
# Submitted via: dBpowerAMP V4.0
#
DISCID=f30d0711
DTITLE=Farmer Dan - My Little Massey
DYEAR=2000
DGENRE=Country
TTITLE0=Here comes Farmer Dan
TTITLE1=My Little Massey Ferguson
TTITLE2=Me and My Dungspreader
TTITLE3=The Dole Song
TTITLE4=Medley 40 Shades of Green
TTITLE5=I Believe in Marriage
TTITLE6=The Transit Van
TTITLE7=Counrtry Pride
TTITLE8=County Down,I'm Going Home
TTITLE9=Mad Cow Song
TTITLE10=The Welly Boots
TTITLE11=The Farmers Daughter
TTITLE12=Who Puts Milk on the Table
TTITLE13=Medley Wild Rover
TTITLE14=The Rooster
TTITLE15=The Donegal Emigrant
TTITLE16=catch Me If You Can 
EXTD=Niall Mcilmoyle
EXTT0=
EXTT1=
EXTT2=
EXTT3=
EXTT4=
EXTT5=
EXTT6=
EXTT7=
EXTT8=
EXTT9=
EXTT10=
EXTT11=
EXTT12=
EXTT13=
EXTT14=
EXTT15=
EXTT16=
PLAYORDER=
